<?xml version="1.0" encoding="utf-8"?>
<!-- Generator: Adobe Illustrator 16.0.0, SVG Export Plug-In . SVG Version: 6.00 Build 0)  -->
<!DOCTYPE svg PUBLIC "-//W3C//DTD SVG 1.1//EN" "http://www.w3.org/Graphics/SVG/1.1/DTD/svg11.dtd">
<svg version="1.1" id="Layer_1" xmlns="http://www.w3.org/2000/svg" xmlns:xlink="http://www.w3.org/1999/xlink" x="0px" y="0px"
	 width="1440px" height="1080px" viewBox="0 0 1440 1080" enable-background="new 0 0 1440 1080" xml:space="preserve">
<g>
	<path d="M584.82,463.91c34.47,0,63.03,12.48,85.69,37.42c20.6,22.76,30.9,49.69,30.9,80.81c0,31.25-10.88,58.57-32.65,81.94
		c-21.77,23.37-49.75,35.06-83.94,35.06c-34.33,0-62.38-11.68-84.14-35.06c-21.77-23.37-32.65-50.68-32.65-81.94
		c0-30.98,10.3-57.85,30.9-80.6C521.58,476.46,550.21,463.91,584.82,463.91z M584.71,492.08c-23.94,0-44.5,8.84-61.7,26.52
		c-17.19,17.68-25.79,39.07-25.79,64.15c0,16.18,3.92,31.25,11.76,45.24c7.84,13.98,18.43,24.78,31.78,32.38
		c13.34,7.61,27.99,11.41,43.95,11.41c15.95,0,30.6-3.8,43.95-11.41c13.34-7.61,23.94-18.4,31.78-32.38
		c7.84-13.98,11.76-29.06,11.76-45.24c0-25.08-8.63-46.47-25.9-64.15C629.04,500.92,608.51,492.08,584.71,492.08z"/>
	<path d="M743.76,469.67h29.4v32.69c8.77-12.88,18.02-22.52,27.76-28.89c9.73-6.37,19.87-9.56,30.43-9.56
		c7.95,0,16.45,2.54,25.5,7.61l-15.01,24.26c-6.03-2.6-11.1-3.91-15.22-3.91c-9.6,0-18.85,3.94-27.76,11.82
		c-8.91,7.88-15.7,20.12-20.36,36.7c-3.57,12.75-5.35,38.52-5.35,77.31v75.67h-29.4V469.67z"/>
	<path d="M857.26,469.67h30.43l76.88,172.27l74.66-172.27h30.64L936.42,775.21h-30.41l43.07-98.78L857.26,469.67z"/>
	<path d="M1329.97,469.67v223.71h-28.38v-38.45c-12.06,14.67-25.6,25.7-40.61,33.1s-31.43,11.1-49.25,11.1
		c-31.67,0-58.7-11.48-81.12-34.44c-22.41-22.96-33.62-50.89-33.62-83.79c0-32.21,11.31-59.76,33.93-82.66
		c22.62-22.89,49.83-34.34,81.63-34.34c18.37,0,34.99,3.91,49.86,11.72c14.87,7.81,27.93,19.53,39.17,35.16v-41.12H1329.97z
		 M1214.92,491.67c-16.02,0-30.81,3.94-44.36,11.81c-13.56,7.87-24.34,18.93-32.35,33.17c-8.01,14.24-12.01,29.3-12.01,45.18
		c0,15.75,4.04,30.81,12.12,45.18c8.08,14.38,18.93,25.57,32.55,33.58c13.62,8.01,28.24,12.02,43.85,12.02
		c15.75,0,30.67-3.97,44.77-11.91c14.1-7.94,24.95-18.69,32.55-32.24c7.6-13.55,11.4-28.82,11.4-45.8c0-25.88-8.52-47.51-25.57-64.9
		C1260.83,500.37,1239.84,491.67,1214.92,491.67z"/>
</g>
<g>
	<defs>
		<rect id="SVGID_1_" width="1440" height="1080"/>
	</defs>
	<clipPath id="SVGID_2_">
		<use xlink:href="#SVGID_1_"  overflow="visible"/>
	</clipPath>
	<path clip-path="url(#SVGID_2_)" d="M783.67,342c0,0,90.67,3.33,192,77.33l-460-6l430-4C945.67,409.33,894.33,367.33,783.67,342"/>
	<path clip-path="url(#SVGID_2_)" d="M1291.16,454.07c0,0-40.23-13.78-91.94-24.66c-51.71-10.89-65.49-10.89-87.77-12.59
		s-67.36-4.42-92.36,0c0,0-51.45-34.32-71.1-42.99c-19.65-8.67-91.85-50.9-197.48-47.33c0,0-76.88,6.97-154.62,35.04
		c-77.73,28.07-69.23,32.49-144.41,53.92c0,0-45.25,13.61-90.83,16.33c-45.59,2.72-70.76-3.4-74.5-3.4c-3.74,0-37.76-3.74-65.32,5.1
		c-27.56,8.85-65.66,31.64-82.67,76.54c-17.01,44.91-0.68,100.7,29.6,127.57c30.28,26.88,61.58,37.08,95.59,38.78
		c0,0,30.28,0,50.69-10.21c20.41-10.21,38.44-21.09,50.35-44.22c11.91-23.13,11.23-28.24,11.91-31.64c0.68-3.4,0.68-5.44,0.68-5.44
		h-92.53v-28.24h125.53c0,0,1.7,36.06-13.95,70.08c-15.65,34.02-44.56,60.89-83.01,69.74s-99.68,17.69-160.57-31.64
		c0,0-48.65-40.82-51.71-105.8s34.36-108.52,49.33-120.43c14.97-11.91,20.75-17.69,48.99-29.94c0,0,12.25-4.08,17.01-5.1
		c0,0-31.3-16.33-58.17-44.56h44.23c0,0,18.71,26.19,42.52,40.48c0,0,40.37-7.03,83.35,12.25c0,0,21.76,10.09,28.92,14.97
		c0,0,39.46-1.36,79.94-15.99c40.48-14.63,123.57-59.7,180.47-76.03c56.9-16.33,139.31-44.4,275.04-5.61
		c0,0,61.75,15.31,139.82,69.4C1032.19,398.44,1164.35,383.65,1291.16,454.07"/>
	<rect x="1301.33" y="388" clip-path="url(#SVGID_2_)" width="35.09" height="306"/>
</g>
</svg>
